<svg xmlns="http://www.w3.org/2000/svg" viewBox="0 0 32 32">
  <!-- Row 0 -->
  <rect x="1"  y="1"  width="6" height="6" rx="1.5" fill="#0050FF"/>
  <rect x="9"  y="1"  width="6" height="6" rx="1.5" fill="#0050FF" fill-opacity="0.3"/>
  <rect x="17" y="1"  width="6" height="6" rx="1.5" fill="#0050FF" fill-opacity="0.12"/>
  <rect x="25" y="1"  width="6" height="6" rx="1.5" fill="#0050FF" fill-opacity="0.08"/>
  <!-- Row 1 -->
  <rect x="1"  y="9"  width="6" height="6" rx="1.5" fill="#0050FF"/>
  <rect x="9"  y="9"  width="6" height="6" rx="1.5" fill="#0050FF" fill-opacity="0.12"/>
  <rect x="17" y="9"  width="6" height="6" rx="1.5" fill="#0050FF" fill-opacity="0.28"/>
  <rect x="25" y="9"  width="6" height="6" rx="1.5" fill="#0050FF" fill-opacity="0.08"/>
  <!-- Row 2 -->
  <rect x="1"  y="17" width="6" height="6" rx="1.5" fill="#0050FF"/>
  <rect x="9"  y="17" width="6" height="6" rx="1.5" fill="#0050FF" fill-opacity="0.08"/>
  <rect x="17" y="17" width="6" height="6" rx="1.5" fill="#0050FF" fill-opacity="0.12"/>
  <rect x="25" y="17" width="6" height="6" rx="1.5" fill="#00C8A8"/>
  <!-- Row 3 -->
  <rect x="1"  y="25" width="6" height="6" rx="1.5" fill="#0050FF"/>
  <rect x="9"  y="25" width="6" height="6" rx="1.5" fill="#0050FF"/>
  <rect x="17" y="25" width="6" height="6" rx="1.5" fill="#0050FF"/>
  <rect x="25" y="25" width="6" height="6" rx="1.5" fill="#00C8A8"/>
</svg>
